<svg width="54" height="54" viewBox="0 0 54 54" fill="none" xmlns="http://www.w3.org/2000/svg">
<g clip-path="url(#clip0_106_77)">
<path d="M27 51.8822C37.7914 51.8822 46.5395 41.4267 46.5395 28.5292C46.5395 15.6317 37.7914 5.17627 27 5.17627C16.2087 5.17627 7.46057 15.6317 7.46057 28.5292C7.46057 41.4267 16.2087 51.8822 27 51.8822Z" fill="white"/>
<path d="M12.7 49.7858C7.69544 46.6689 3.85198 42.0012 1.7578 36.4969C-0.336382 30.9926 -0.565908 24.9551 1.10435 19.3081C2.77461 13.6613 6.25262 8.7162 11.0061 5.22978C15.7596 1.74336 21.5267 -0.0923625 27.4248 0.00357816C33.3229 0.0995188 39.027 2.12183 43.6641 5.761C48.3012 9.40018 51.6159 14.4558 53.1009 20.1539C54.5861 25.8521 54.1595 31.8791 51.8868 37.3124C49.6139 42.7457 45.6202 47.2859 40.5166 50.2384L35.1039 40.9168C38.1662 39.1454 40.5624 36.4213 41.926 33.1613C43.2898 29.9013 43.5457 26.2852 42.6547 22.8662C41.7636 19.4473 39.7748 16.414 36.9925 14.2305C34.2102 12.0469 30.7877 10.8336 27.2489 10.776C23.71 10.7185 20.2498 11.8199 17.3977 13.9118C14.5455 16.0036 12.4587 18.9706 11.4566 22.3587C10.4545 25.7468 10.5922 29.3694 11.8487 32.672C13.1052 35.9746 15.4113 38.7753 18.414 40.6454L12.7 49.7858Z" fill="#2A63D1"/>
<path d="M0 27.0459C-6.26017e-07 34.1894 2.84462 41.0404 7.90807 46.0915C12.9715 51.1428 19.8391 53.9806 26.9999 53.9806C34.1607 53.9806 41.0282 51.1428 46.0916 46.0915C51.1551 41.0404 53.9998 34.1894 53.9998 27.0459H48.6894C48.6894 32.7844 46.4042 38.2879 42.3367 42.3457C38.2691 46.4034 32.7523 48.6831 26.9999 48.6831C21.2475 48.6831 15.7306 46.4034 11.6631 42.3457C7.59548 38.2879 5.31034 32.7844 5.31034 27.0459H0Z" fill="#16336C"/>
<path d="M27.0592 39.5295C34.09 39.5295 39.7895 33.8672 39.7895 26.8824C39.7895 19.8976 34.09 14.2354 27.0592 14.2354C20.0285 14.2354 14.329 19.8976 14.329 26.8824C14.329 33.8672 20.0285 39.5295 27.0592 39.5295Z" fill="black"/>
</g>
<defs>
<clipPath id="clip0_106_77">
<rect width="54" height="54" fill="white"/>
</clipPath>
</defs>
</svg>
