<?xml version="1.0" encoding="UTF-8"?>
<svg xmlns="http://www.w3.org/2000/svg" xmlns:xlink="http://www.w3.org/1999/xlink" width="64px" height="64px" viewBox="0 0 64 64" version="1.1">
<g id="surface1">
<path style=" stroke:none;fill-rule:nonzero;fill:rgb(0%,0%,0%);fill-opacity:1;" d="M 20.851562 0.449219 C 19.101562 1.050781 18.425781 1.648438 11.949219 8.175781 C 7.699219 12.449219 6.125 14.226562 5.699219 15.148438 L 5.125 16.375 L 5.050781 38.375 C 4.976562 62.925781 4.898438 61.824219 6.699219 63.199219 L 7.574219 63.875 L 56.375 63.875 L 57.226562 63.273438 C 57.675781 62.949219 58.273438 62.226562 58.523438 61.648438 C 58.976562 60.675781 59 59.375 59 32 C 59 4.625 58.976562 3.324219 58.523438 2.351562 C 58.273438 1.773438 57.675781 1.050781 57.226562 0.726562 L 56.375 0.125 L 39.25 0.0742188 C 23.425781 0.0234375 22.023438 0.0507812 20.851562 0.449219 Z M 55 32 L 55 60 L 9 60 L 9 18.023438 L 14.726562 17.949219 C 21.101562 17.875 21.175781 17.851562 22.449219 16 C 22.976562 15.199219 23 14.976562 23 9.601562 L 23 4 L 55 4 Z M 19 10.5 L 19 14 L 11.875 14 L 15.375 10.5 C 17.300781 8.574219 18.898438 7 18.925781 7 C 18.976562 7 19 8.574219 19 10.5 Z M 19 10.5 "/>
<path style=" stroke:none;fill-rule:nonzero;fill:rgb(0%,0%,0%);fill-opacity:1;" d="M 27.976562 12.324219 C 26.875 13.175781 26.800781 14.550781 27.800781 15.5 C 28.324219 15.976562 28.648438 16 37.898438 16 C 43.148438 16 47.648438 15.925781 47.875 15.851562 C 48.449219 15.625 49.074219 14.300781 48.898438 13.601562 C 48.800781 13.273438 48.5 12.773438 48.199219 12.5 C 47.675781 12.023438 47.351562 12 38.023438 12 C 30.824219 12.023438 28.273438 12.101562 27.976562 12.324219 Z M 27.976562 12.324219 "/>
<path style=" stroke:none;fill-rule:nonzero;fill:rgb(0%,0%,0%);fill-opacity:1;" d="M 15.976562 22.324219 C 14.875 23.175781 14.800781 24.550781 15.800781 25.5 C 16.324219 26 16.625 26 31.898438 26 C 40.449219 26 47.648438 25.925781 47.875 25.851562 C 48.449219 25.625 49.074219 24.300781 48.898438 23.601562 C 48.800781 23.273438 48.5 22.773438 48.199219 22.5 C 47.675781 22 47.375 22 32.023438 22 C 20.125 22.023438 16.273438 22.101562 15.976562 22.324219 Z M 15.976562 22.324219 "/>
<path style=" stroke:none;fill-rule:nonzero;fill:rgb(0%,0%,0%);fill-opacity:1;" d="M 16.300781 29.398438 L 15.75 29.773438 L 15.75 39 C 15.75 47.050781 15.800781 48.273438 16.148438 48.601562 C 16.476562 48.949219 17.449219 49 22.976562 49 C 29.851562 49 30 48.976562 30 47.75 C 30 46.550781 29.773438 46.5 23.949219 46.5 L 18.5 46.5 L 18.5 40.25 L 22.449219 40.25 C 26.125 40.25 26.449219 40.199219 26.875 39.75 C 27.25 39.351562 27.300781 39.101562 27.101562 38.550781 L 26.875 37.875 L 22.675781 37.800781 L 18.5 37.75 L 18.5 31.5 L 24.199219 31.449219 L 29.875 31.375 L 29.949219 30.5 C 30.101562 29.050781 29.898438 29 23 29 C 17.851562 29 16.773438 29.074219 16.300781 29.398438 Z M 16.300781 29.398438 "/>
<path style=" stroke:none;fill-rule:nonzero;fill:rgb(0%,0%,0%);fill-opacity:1;" d="M 32.75 29.5 C 32.125 30.125 32.125 30.550781 32.699219 31.074219 C 33.101562 31.425781 34 31.5 38.976562 31.550781 L 44.773438 31.625 L 43.699219 33 C 43.101562 33.773438 42.148438 34.949219 41.574219 35.625 C 39.050781 38.601562 32.175781 47.125 32.074219 47.425781 C 32 47.601562 32.125 48.023438 32.351562 48.375 L 32.75 49 L 40.226562 49 C 48.375 49 48.375 49 48.199219 47.574219 L 48.125 46.875 L 41.925781 46.800781 C 38.226562 46.773438 35.75 46.648438 35.800781 46.5 C 35.851562 46.375 38.523438 43.050781 41.75 39.101562 C 47.976562 31.476562 48.5 30.800781 48.5 30.300781 C 48.5 30.148438 48.273438 29.773438 48 29.5 C 47.523438 29.023438 47.175781 29 40.375 29 C 33.574219 29 33.226562 29.023438 32.75 29.5 Z M 32.75 29.5 "/>
<path style=" stroke:none;fill-rule:nonzero;fill:rgb(0%,0%,0%);fill-opacity:1;" d="M 15.976562 52.324219 C 14.875 53.175781 14.800781 54.550781 15.800781 55.5 C 16.324219 56 16.625 56 31.898438 56 C 40.449219 56 47.648438 55.925781 47.875 55.851562 C 48.449219 55.625 49.074219 54.300781 48.898438 53.601562 C 48.800781 53.273438 48.5 52.773438 48.199219 52.5 C 47.675781 52 47.375 52 32.023438 52 C 20.125 52.023438 16.273438 52.101562 15.976562 52.324219 Z M 15.976562 52.324219 "/>
</g>
</svg>
