<svg width="400" height="20" xmlns="http://www.w3.org/2000/svg">

 <g>
  <title>Layer 1</title>
  <path stroke-width="5" d="m2.5,11.98503c2,0 3,0 4,0c5,0 9,-0.49418 13,-0.49418c4,0 9,0 15,0c7,0 12,0 19,0c7,0 14,0.49418 21,0.49418c7,0 18.04776,0.43139 26,0c9.16449,-0.49716 17.61011,-2.55135 28,-3.95347c12.68835,-1.7123 23.94583,-2.69308 47,-3.95347c10.97839,-0.6002 22.95331,-1.23499 31,-1.48255c6.98648,-0.21495 15,0 22,0c7,0 16,0 22,1.48255c8,1.97674 15.38092,4.41865 25,6.42439c9.48581,1.97795 18.87592,3.95178 31,4.44766c8.96933,0.36685 19.01685,0.30062 30,0c9.0415,-0.24747 16.00916,-0.8244 22,-0.98837c9.0415,-0.24747 14.133,-0.28144 18,-0.98837c4.19434,-0.76677 9,-1.48255 12,-2.47092l3,-1.48255l2,-0.98837l2,-0.49418" id="svg_2" stroke="#000" fill="none"/>
 </g>
</svg>